# Blender 3.5.1
# www.blender.org
mtllib Pletina S275JR  20x4x3000 mm.mtl
o Plane
v 0.020000 0.004000 0.000000
v 0.000000 0.000000 0.000000
v 0.020000 0.000000 0.000000
v 0.000000 0.004000 0.000000
v 0.020000 0.004000 -3.000000
v 0.000000 0.000000 -3.000000
v 0.020000 0.000000 -3.000000
v 0.000000 0.004000 -3.000000
vn -0.0000 -0.0000 1.0000
vn -0.0000 -0.0000 -1.0000
vn 1.0000 -0.0000 -0.0000
vn -0.0000 1.0000 -0.0000
vn -0.0000 -1.0000 -0.0000
vn -1.0000 -0.0000 -0.0000
vt 0.000000 0.000000
vt 0.000000 0.000000
vt 0.000000 0.000000
vt 0.000000 0.000000
vt 0.000000 0.000000
vt 0.000000 0.000000
vt 0.000000 0.000000
vt 0.000000 0.000000
s 0
f 3/3/1 1/1/1 4/4/1 2/2/1
f 7/7/2 6/6/2 8/8/2 5/5/2
f 1/1/3 3/3/3 7/7/3 5/5/3
f 4/4/4 1/1/4 5/5/4 8/8/4
f 3/3/5 2/2/5 6/6/5 7/7/5
f 2/2/6 4/4/6 8/8/6 6/6/6
