# Blender 3.5.1
# www.blender.org
mtllib IPN80.mtl
o Cubo
v -0.021000 0.000000 0.300000
v -0.021000 0.080000 0.300000
v -0.021000 0.000000 0.000000
v -0.021000 0.080000 0.000000
v 0.021000 0.000000 0.300000
v 0.021000 0.080000 0.300000
v 0.021000 0.000000 0.000000
v 0.021000 0.080000 0.000000
v -0.021000 0.004631 0.300000
v -0.021000 0.075369 0.300000
v -0.021000 0.075369 0.000000
v -0.021000 0.004631 0.000000
v 0.021000 0.075369 0.000000
v 0.021000 0.004631 0.000000
v 0.021000 0.075369 0.300000
v 0.021000 0.004631 0.300000
v -0.001854 0.005688 0.300000
v -0.001854 0.074312 0.300000
v -0.001854 0.074312 0.000000
v -0.001854 0.005688 0.000000
v 0.001854 0.074312 0.000000
v 0.001854 0.005688 0.000000
v 0.001854 0.074312 0.300000
v 0.001854 0.005688 0.300000
vn -1.0000 -0.0000 -0.0000
vn -0.0000 -0.0000 -1.0000
vn 1.0000 -0.0000 -0.0000
vn -0.0000 -0.0000 1.0000
vn -0.0000 -1.0000 -0.0000
vn -0.0000 1.0000 -0.0000
vn 0.0551 -0.9985 -0.0000
vn -0.0551 -0.9985 -0.0000
vn -0.0551 0.9985 -0.0000
vn 0.0551 0.9985 -0.0000
vt 0.125000 0.750000
vt 0.375000 1.000000
vt 0.375000 0.000000
vt 0.625000 0.000000
vt 0.625000 1.000000
vt 0.875000 0.750000
vt 0.125000 0.500000
vt 0.375000 0.250000
vt 0.625000 0.250000
vt 0.875000 0.500000
vt 0.375000 0.750000
vt 0.625000 0.750000
vt 0.375000 0.500000
vt 0.625000 0.500000
vt 0.458333 0.000000
vt 0.458333 1.000000
vt 0.541667 1.000000
vt 0.541667 0.000000
vt 0.541667 0.250000
vt 0.458333 0.250000
vt 0.541667 0.500000
vt 0.458333 0.500000
vt 0.541667 0.750000
vt 0.458333 0.750000
vt 0.486111 0.000000
vt 0.486111 1.000000
vt 0.513889 0.000000
vt 0.513889 1.000000
vt 0.513889 0.250000
vt 0.486111 0.250000
vt 0.513889 0.500000
vt 0.486111 0.500000
vt 0.513889 0.750000
vt 0.486111 0.750000
s 0
f 10/18/1 2/4/1 4/9/1 11/19/1
f 11/19/2 4/9/2 8/14/2 13/21/2
f 13/21/3 8/14/3 6/12/3 15/23/3
f 15/23/4 6/12/4 2/5/4 10/17/4
f 3/7/5 7/13/5 5/11/5 1/1/5
f 8/14/6 4/10/6 2/6/6 6/12/6
f 5/11/4 16/24/4 9/16/4 1/2/4
f 23/33/4 15/23/4 10/17/4 18/28/4
f 7/13/3 14/22/3 16/24/3 5/11/3
f 21/31/7 13/21/7 15/23/7 23/33/7
f 3/8/2 12/20/2 14/22/2 7/13/2
f 19/29/2 11/19/2 13/21/2 21/31/2
f 1/3/1 9/15/1 12/20/1 3/8/1
f 18/27/8 10/18/8 11/19/8 19/29/8
f 9/15/9 17/25/9 20/30/9 12/20/9
f 17/25/1 18/27/1 19/29/1 20/30/1
f 12/20/2 20/30/2 22/32/2 14/22/2
f 20/30/2 19/29/2 21/31/2 22/32/2
f 14/22/10 22/32/10 24/34/10 16/24/10
f 22/32/3 21/31/3 23/33/3 24/34/3
f 16/24/4 24/34/4 17/26/4 9/16/4
f 24/34/4 23/33/4 18/28/4 17/26/4
