# Blender 3.5.1
# www.blender.org
mtllib Tubo cuadrado 20x20x1.5x3000 mm.mtl
o Plane
v 0.019016 0.000000 0.000000
v 0.020000 0.000984 0.000000
v 0.000000 0.000984 0.000000
v 0.000984 0.000000 0.000000
v 0.020000 0.019016 0.000000
v 0.019016 0.020000 0.000000
v 0.000984 0.020000 0.000000
v 0.000000 0.019016 0.000000
v 0.018500 0.002484 0.000000
v 0.017516 0.001500 0.000000
v 0.002484 0.001500 0.000000
v 0.001500 0.002484 0.000000
v 0.017516 0.018500 0.000000
v 0.018500 0.017516 0.000000
v 0.001500 0.017516 0.000000
v 0.002484 0.018500 0.000000
v 0.020000 0.000984 -3.000000
v 0.019016 0.000000 -3.000000
v 0.000984 0.000000 -3.000000
v -0.000000 0.000984 -3.000000
v 0.019016 0.020000 -3.000000
v 0.020000 0.019016 -3.000000
v -0.000000 0.019016 -3.000000
v 0.000984 0.020000 -3.000000
v 0.017516 0.001500 -3.000000
v 0.018500 0.002484 -3.000000
v 0.001500 0.002484 -3.000000
v 0.002484 0.001500 -3.000000
v 0.018500 0.017516 -3.000000
v 0.017516 0.018500 -3.000000
v 0.002484 0.018500 -3.000000
v 0.001500 0.017516 -3.000000
vn -0.0000 1.0000 -0.0000
vn 1.0000 -0.0000 -0.0000
vn -1.0000 -0.0000 -0.0000
vn -0.0000 -1.0000 -0.0000
vn -0.0000 -0.0000 1.0000
vn -0.0000 -0.0000 -1.0000
vn -0.7071 0.7071 -0.0000
vn 0.7071 0.7071 -0.0000
vn 0.7071 -0.7071 -0.0000
vn -0.7071 -0.7071 -0.0000
vn -0.0000 -0.0001 -1.0000
vn -0.0000 0.0002 -1.0000
vt 0.000000 0.000000
vt 0.000000 0.000000
vt 0.000000 0.000000
vt 0.000000 0.000000
vt 0.000000 0.000000
vt 0.000000 0.000000
vt 0.000000 0.000000
vt 0.000000 0.000000
vt 0.000000 0.000000
vt 0.000000 0.000000
vt 0.000000 0.000000
vt 0.000000 0.000000
vt 0.000000 0.000000
vt 0.000000 0.000000
vt 0.000000 0.000000
vt 0.000000 0.000000
vt 0.000000 0.000000
vt 0.000000 0.000000
vt 0.000000 0.000000
vt 0.000000 0.000000
vt 0.000000 0.000000
vt 0.000000 0.000000
vt 0.000000 0.000000
vt 0.000000 0.000000
vt 0.000000 0.000000
vt 0.000000 0.000000
vt 0.000000 0.000000
vt 0.000000 0.000000
vt 0.000000 0.000000
vt 0.000000 0.000000
vt 0.000000 0.000000
vt 0.000000 0.000000
s 0
f 6/6/1 24/24/1 7/7/1
f 2/2/2 22/22/2 5/5/2
f 10/10/1 28/28/1 11/11/1
f 14/14/3 26/26/3 9/9/3
f 8/8/3 20/20/3 3/3/3
f 12/12/2 32/32/2 15/15/2
f 16/16/4 30/30/4 13/13/4
f 4/4/5 12/12/5 3/3/5
f 8/8/5 12/12/5 15/15/5
f 29/29/6 17/17/6 26/26/6
f 17/17/6 25/25/6 26/26/6
f 18/18/6 28/28/6 25/25/6
f 20/20/6 28/28/6 19/19/6
f 27/27/6 23/23/6 32/32/6
f 24/24/6 32/32/6 23/23/6
f 30/30/6 24/24/6 21/21/6
f 22/22/6 30/30/6 21/21/6
f 26/26/7 10/10/7 9/9/7
f 12/12/8 28/28/8 27/27/8
f 18/18/9 2/2/9 1/1/9
f 6/6/8 22/22/8 21/21/8
f 30/30/10 14/14/10 13/13/10
f 20/20/10 4/4/10 3/3/10
f 32/32/9 16/16/9 15/15/9
f 24/24/7 8/8/7 7/7/7
f 4/4/4 18/18/4 1/1/4
f 4/4/5 10/10/5 11/11/5
f 2/2/5 10/10/5 1/1/5
f 5/5/5 9/9/5 2/2/5
f 6/6/5 14/14/5 5/5/5
f 7/7/5 13/13/5 6/6/5
f 7/7/5 15/15/5 16/16/5
f 6/6/1 21/21/1 24/24/1
f 2/2/2 17/17/2 22/22/2
f 10/10/1 25/25/1 28/28/1
f 14/14/3 29/29/3 26/26/3
f 8/8/3 23/23/3 20/20/3
f 12/12/2 27/27/2 32/32/2
f 16/16/4 31/31/4 30/30/4
f 4/4/5 11/11/5 12/12/5
f 8/8/5 3/3/5 12/12/5
f 29/29/6 22/22/6 17/17/6
f 17/17/6 18/18/6 25/25/6
f 18/18/11 19/19/11 28/28/11
f 20/20/12 27/27/12 28/28/12
f 27/27/6 20/20/6 23/23/6
f 24/24/12 31/31/12 32/32/12
f 30/30/12 31/31/12 24/24/12
f 22/22/6 29/29/6 30/30/6
f 26/26/7 25/25/7 10/10/7
f 12/12/8 11/11/8 28/28/8
f 18/18/9 17/17/9 2/2/9
f 6/6/8 5/5/8 22/22/8
f 30/30/10 29/29/10 14/14/10
f 20/20/10 19/19/10 4/4/10
f 32/32/9 31/31/9 16/16/9
f 24/24/7 23/23/7 8/8/7
f 4/4/4 19/19/4 18/18/4
f 4/4/5 1/1/5 10/10/5
f 2/2/5 9/9/5 10/10/5
f 5/5/5 14/14/5 9/9/5
f 6/6/5 13/13/5 14/14/5
f 7/7/5 16/16/5 13/13/5
f 7/7/5 8/8/5 15/15/5
