# Blender 3.5.1
# www.blender.org
mtllib Tubo cuadrado 40x40x1.5x3000 mm.mtl
o Plane
v 0.000000 0.001694 0.000000
v 0.001694 0.000000 0.000000
v 0.038306 0.000000 0.000000
v 0.040000 0.001694 0.000000
v 0.001694 0.040000 0.000000
v 0.000000 0.038306 0.000000
v 0.040000 0.038306 0.000000
v 0.038306 0.040000 0.000000
v 0.038500 0.003194 0.000000
v 0.036806 0.001500 0.000000
v 0.003194 0.001500 0.000000
v 0.001500 0.003194 0.000000
v 0.036806 0.038500 0.000000
v 0.038500 0.036806 0.000000
v 0.001500 0.036806 0.000000
v 0.003194 0.038500 0.000000
v 0.001694 0.000000 -3.000000
v 0.000000 0.001694 -3.000000
v 0.040000 0.001694 -3.000000
v 0.038306 0.000000 -3.000000
v 0.000000 0.038306 -3.000000
v 0.001694 0.040000 -3.000000
v 0.038306 0.040000 -3.000000
v 0.040000 0.038306 -3.000000
v 0.036806 0.001500 -3.000000
v 0.038500 0.003194 -3.000000
v 0.001500 0.003194 -3.000000
v 0.003194 0.001500 -3.000000
v 0.038500 0.036806 -3.000000
v 0.036806 0.038500 -3.000000
v 0.003194 0.038500 -3.000000
v 0.001500 0.036806 -3.000000
vn 1.0000 -0.0000 -0.0000
vn -0.0000 1.0000 -0.0000
vn -1.0000 -0.0000 -0.0000
vn -0.0000 -1.0000 -0.0000
vn 0.7071 -0.7071 -0.0000
vn 0.7071 0.7071 -0.0000
vn -0.7071 0.7071 -0.0000
vn -0.7071 -0.7071 -0.0000
vn -0.0000 -0.0000 -1.0000
vn -0.0000 -0.0001 -1.0000
vn -0.0000 -0.0000 1.0000
vt 0.000000 0.000000
vt 0.000000 0.000000
vt 0.000000 0.000000
vt 0.000000 0.000000
vt 0.000000 0.000000
vt 0.000000 0.000000
vt 0.000000 0.000000
vt 0.000000 0.000000
vt 0.000000 0.000000
vt 0.000000 0.000000
vt 0.000000 0.000000
vt 0.000000 0.000000
vt 0.000000 0.000000
vt 0.000000 0.000000
vt 0.000000 0.000000
vt 0.000000 0.000000
vt 0.000000 0.000000
vt 0.000000 0.000000
vt 0.000000 0.000000
vt 0.000000 0.000000
vt 0.000000 0.000000
vt 0.000000 0.000000
vt 0.000000 0.000000
vt 0.000000 0.000000
vt 0.000000 0.000000
vt 0.000000 0.000000
vt 0.000000 0.000000
vt 0.000000 0.000000
vt 0.000000 0.000000
vt 0.000000 0.000000
vt 0.000000 0.000000
vt 0.000000 0.000000
s 0
f 7/7/1 4/4/1 19/19/1 24/24/1
f 5/5/2 8/8/2 23/23/2 22/22/2
f 9/9/3 14/14/3 29/29/3 26/26/3
f 1/1/3 6/6/3 21/21/3 18/18/3
f 15/15/1 12/12/1 27/27/1 32/32/1
f 11/11/2 10/10/2 25/25/2 28/28/2
f 13/13/4 16/16/4 31/31/4 30/30/4
f 3/3/5 20/20/5 19/19/5 4/4/5
f 23/23/6 8/8/6 7/7/6 24/24/6
f 9/9/7 26/26/7 25/25/7 10/10/7
f 27/27/6 12/12/6 11/11/6 28/28/6
f 1/1/8 18/18/8 17/17/8 2/2/8
f 13/13/8 30/30/8 29/29/8 14/14/8
f 5/5/7 22/22/7 21/21/7 6/6/7
f 15/15/5 32/32/5 31/31/5 16/16/5
f 3/3/4 2/2/4 17/17/4 20/20/4
f 21/21/9 22/22/9 31/31/9 32/32/9
f 21/21/9 32/32/9 27/27/9 18/18/9
f 17/17/9 18/18/9 27/27/9 28/28/9
f 17/17/10 28/28/10 25/25/10 20/20/10
f 19/19/9 20/20/9 25/25/9 26/26/9
f 19/19/9 26/26/9 29/29/9 24/24/9
f 23/23/9 24/24/9 29/29/9 30/30/9
f 23/23/9 30/30/9 31/31/9 22/22/9
f 7/7/11 8/8/11 13/13/11 14/14/11
f 4/4/11 7/7/11 14/14/11 9/9/11
f 3/3/11 4/4/11 9/9/11 10/10/11
f 2/2/11 3/3/11 10/10/11 11/11/11
f 1/1/11 2/2/11 11/11/11 12/12/11
f 6/6/11 1/1/11 12/12/11 15/15/11
f 5/5/11 6/6/11 15/15/11 16/16/11
f 8/8/11 5/5/11 16/16/11 13/13/11
