# Blender 3.5.1
# www.blender.org
mtllib Angulo 40x40x4x3000 mm.mtl
o Plane
v 0.000000 0.004000 -0.040000
v 0.000000 0.000000 0.000000
v 0.000000 0.004000 -0.004000
v 0.000000 0.000000 -0.040000
v 0.000000 0.040000 -0.000000
v 0.000000 0.040000 -0.004000
v 0.000000 0.004000 -0.040000
v 0.000000 0.000000 0.000000
v 0.000000 0.004000 -0.004000
v 0.000000 0.000000 -0.040000
v 0.000000 0.040000 -0.000000
v 0.000000 0.040000 -0.004000
v 3.000000 0.004000 -0.040000
v 3.000000 0.000000 0.000000
v 3.000000 0.004000 -0.004000
v 3.000000 0.000000 -0.040000
v 3.000000 0.040000 -0.000000
v 3.000000 0.040000 -0.004000
vn 1.0000 -0.0000 -0.0000
vn -0.0000 -0.0000 1.0000
vn -0.0000 -1.0000 -0.0000
vn -0.0000 1.0000 -0.0000
vn -1.0000 -0.0000 -0.0000
vn -0.0000 -0.0000 -1.0000
vt 0.000000 0.000000
vt 0.000000 0.000000
vt 0.000000 0.000000
vt 0.000000 0.000000
vt 0.000000 0.000000
vt 0.000000 0.000000
vt 0.000000 0.000000
vt 0.000000 0.000000
vt 0.000000 0.000000
vt 0.000000 0.000000
vt 0.000000 0.000000
vt 0.000000 0.000000
vt 0.000000 0.000000
vt 0.000000 0.000000
vt 0.000000 0.000000
vt 0.000000 0.000000
vt 0.000000 0.000000
vt 0.000000 0.000000
s 0
f 5/5/1 2/2/1 3/3/1 6/6/1
f 4/4/1 1/1/1 3/3/1 2/2/1
f 7/7/2 10/10/2 16/16/2 13/13/2
f 9/9/3 7/7/3 13/13/3 15/15/3
f 6/6/4 3/3/4 9/9/4 12/12/4
f 3/3/4 1/1/4 7/7/4 9/9/4
f 1/1/4 4/4/4 10/10/4 7/7/4
f 5/5/4 6/6/4 12/12/4 11/11/4
f 2/2/4 5/5/4 11/11/4 8/8/4
f 4/4/4 2/2/4 8/8/4 10/10/4
f 17/17/5 18/18/5 15/15/5 14/14/5
f 16/16/5 14/14/5 15/15/5 13/13/5
f 11/11/3 12/12/3 18/18/3 17/17/3
f 8/8/6 11/11/6 17/17/6 14/14/6
f 10/10/4 8/8/4 14/14/4 16/16/4
f 12/12/2 9/9/2 15/15/2 18/18/2
