# Blender 3.5.1
# www.blender.org
mtllib Platina rectangular 50x10x2144 mm.mtl
o Plane
v 0.000000 0.000000 0.000000
v 0.000000 0.010000 0.000000
v 0.000000 0.010000 -0.050000
v 0.000000 0.000000 -0.050000
v 2.144000 0.000000 0.000000
v 2.144000 0.010000 0.000000
v 2.144000 0.010000 -0.050000
v 2.144000 0.000000 -0.050000
vn 1.0000 -0.0000 -0.0000
vn -1.0000 -0.0000 -0.0000
vn -0.0000 -0.0000 -1.0000
vn -0.0000 -1.0000 -0.0000
vn -0.0000 -0.0000 1.0000
vn -0.0000 1.0000 -0.0000
vt 0.000000 0.000000
vt 0.000000 0.000000
vt 0.000000 0.000000
vt 0.000000 0.000000
vt 0.000000 0.000000
vt 0.000000 0.000000
vt 0.000000 0.000000
vt 0.000000 0.000000
s 0
f 2/2/1 1/1/1 4/4/1 3/3/1
f 6/6/2 7/7/2 8/8/2 5/5/2
f 1/1/3 2/2/3 6/6/3 5/5/3
f 2/2/4 3/3/4 7/7/4 6/6/4
f 3/3/5 4/4/5 8/8/5 7/7/5
f 4/4/6 1/1/6 5/5/6 8/8/6
